<svg width="900" height="50" viewBox="0 0 900 50" fill="none" xmlns="http://www.w3.org/2000/svg">
<g clip-path="url(#clip0_33_2)">
<path d="M0 27.75L12.5 27.175C25 26.575 50 25.4249 75 26.175C100 26.925 125 29.575 150 31.325C175 33.075 200 33.925 225 33.325C250 32.75 275 30.75 300 30.675C325 30.575 350 32.425 375 31.5C400 30.575 425 26.925 450 26C475 25.075 500 26.925 525 28.575C550 30.25 575 31.75 600 31.575C625 31.425 650 29.575 675 29.325C700 29.075 725 30.425 750 31.25C775 32.075 800 32.425 825 33.75C850 35.075 875 37.425 887.5 38.575L900 39.75V20.25L887.5 19.4249C875 18.5749 850 16.9249 825 14.4999C800 12.0749 775 8.92495 750 8.67495C725 8.42495 700 11.0749 675 11.2499C650 11.4249 625 9.07495 600 10.2499C575 11.4249 550 16.0749 525 16.5749C500 17.0749 475 13.4249 450 13.2499C425 13.0749 400 16.4249 375 18.7499C350 21.075 325 22.425 300 21.9249C275 21.4249 250 19.075 225 17.7499C200 16.4249 175 16.0749 150 16.4999C125 16.9249 100 18.0749 75 17.2499C50 16.4249 25 13.5749 12.5 12.1749L0 10.7499V27.75Z" fill="#2455D1"/>
<path d="M0 38.75L12.5 38C25 37.25 50 35.75 75 35.425C100 35.075 125 35.925 150 37.5C175 39.075 200 41.425 225 40.75C250 40.075 275 36.425 300 36.25C325 36.075 350 39.425 375 40.075C400 40.75 425 38.75 450 37.675C475 36.575 500 36.425 525 36.575C550 36.75 575 37.25 600 37.75C625 38.25 650 38.75 675 38.75C700 38.75 725 38.25 750 38.825C775 39.425 800 41.075 825 42.075C850 43.075 875 43.425 887.5 43.575L900 43.75V39.25L887.5 38.075C875 36.925 850 34.575 825 33.25C800 31.925 775 31.575 750 30.75C725 29.925 700 28.575 675 28.825C650 29.075 625 30.925 600 31.075C575 31.25 550 29.75 525 28.075C500 26.425 475 24.575 450 25.5C425 26.425 400 30.075 375 31C350 31.925 325 30.075 300 30.175C275 30.25 250 32.25 225 32.825C200 33.425 175 32.575 150 30.825C125 29.075 100 26.425 75 25.675C50 24.925 25 26.075 12.5 26.675L0 27.25V38.75Z" fill="#2739A5"/>
<path d="M0 41.25L12.5 41.75C25 42.25 50 43.25 75 43.575C100 43.925 125 43.575 150 43.75C175 43.925 200 44.575 225 44.25C250 43.925 275 42.575 300 43C325 43.425 350 45.575 375 46.5C400 47.425 425 47.075 450 46C475 44.925 500 43.075 525 42.925C550 42.75 575 44.25 600 44.175C625 44.075 650 42.425 675 41.825C700 41.25 725 41.75 750 42.5C775 43.25 800 44.25 825 45.25C850 46.25 875 47.25 887.5 47.75L900 48.25V43.25L887.5 43.075C875 42.925 850 42.575 825 41.575C800 40.575 775 38.925 750 38.325C725 37.75 700 38.25 675 38.25C650 38.25 625 37.75 600 37.25C575 36.75 550 36.25 525 36.075C500 35.925 475 36.075 450 37.175C425 38.25 400 40.25 375 39.575C350 38.925 325 35.575 300 35.75C275 35.925 250 39.575 225 40.25C200 40.925 175 38.575 150 37C125 35.425 100 34.575 75 34.925C50 35.25 25 36.75 12.5 37.5L0 38.25V41.25Z" fill="#201F7B"/>
<path d="M0 50.25H12.5C25 50.25 50 50.25 75 50.25C100 50.25 125 50.25 150 50.25C175 50.25 200 50.25 225 50.25C250 50.25 275 50.25 300 50.25C325 50.25 350 50.25 375 50.25C400 50.25 425 50.25 450 50.25C475 50.25 500 50.25 525 50.25C550 50.25 575 50.25 600 50.25C625 50.25 650 50.25 675 50.25C700 50.25 725 50.25 750 50.25C775 50.25 800 50.25 825 50.25C850 50.25 875 50.25 887.5 50.25H900V47.75L887.5 47.25C875 46.75 850 45.75 825 44.75C800 43.75 775 42.75 750 42C725 41.25 700 40.75 675 41.325C650 41.925 625 43.575 600 43.675C575 43.75 550 42.25 525 42.425C500 42.575 475 44.425 450 45.5C425 46.575 400 46.925 375 46C350 45.075 325 42.925 300 42.5C275 42.075 250 43.425 225 43.75C200 44.075 175 43.425 150 43.25C125 43.075 100 43.425 75 43.075C50 42.75 25 41.75 12.5 41.25L0 40.75V50.25Z" fill="#140654"/>
</g>
<defs>
<clipPath id="clip0_33_2">
<rect width="900" height="50" fill="white"/>
</clipPath>
</defs>
</svg>
